<svg width="276" height="168" viewBox="0 0 276 168" fill="none" xmlns="http://www.w3.org/2000/svg">
<g filter="url(#filter0_d)">
<path d="M54.5 71.5V67H50V62.5H59V67H72.5V58H54.5V53.5H50V44.5H54.5V40H77V44.5H81.5V49H72.5V44.5H59V53.5H77V58H81.5V67H77V71.5H54.5ZM90.5 71.5V67H99.5V44.5H90.5V40H117.5V44.5H108.5V67H117.5V71.5H90.5ZM122 71.5V40H131V44.5H135.5V49H140V44.5H144.5V40H153.5V71.5H144.5V53.5H140V62.5H135.5V53.5H131V71.5H122ZM162.5 71.5V67H158V44.5H162.5V40H185V44.5H189.5V67H185V71.5H162.5ZM167 67H180.5V44.5H167V67ZM194 71.5V40H203V44.5H207.5V49H212V53.5H216.5V40H225.5V71.5H216.5V62.5H212V58H207.5V53.5H203V71.5H194ZM77 107.5V103H72.5V98.5H68V85H72.5V80.5H77V76H99.5V80.5H81.5V85H77V98.5H81.5V103H90.5V94H86V89.5H99.5V107.5H77ZM104 107.5V85H108.5V80.5H113V76H126.5V80.5H131V85H135.5V107.5H126.5V98.5H113V107.5H104ZM113 94H126.5V85H122V80.5H117.5V85H113V94ZM140 107.5V76H149V80.5H153.5V85H158V80.5H162.5V76H171.5V107.5H162.5V89.5H158V98.5H153.5V89.5H149V107.5H140ZM176 107.5V76H207.5V80.5H185V89.5H203V94H185V103H207.5V107.5H176Z" fill="white"/>
</g>
<defs>
<filter id="filter0_d" x="0" y="0" width="275.5" height="167.5" filterUnits="userSpaceOnUse" color-interpolation-filters="sRGB">
<feFlood flood-opacity="0" result="BackgroundImageFix"/>
<feColorMatrix in="SourceAlpha" type="matrix" values="0 0 0 0 0 0 0 0 0 0 0 0 0 0 0 0 0 0 127 0"/>
<feOffset dy="10"/>
<feGaussianBlur stdDeviation="25"/>
<feColorMatrix type="matrix" values="0 0 0 0 0 0 0 0 0 0.624166 0 0 0 0 0.891667 0 0 0 0.67 0"/>
<feBlend mode="normal" in2="BackgroundImageFix" result="effect1_dropShadow"/>
<feBlend mode="normal" in="SourceGraphic" in2="effect1_dropShadow" result="shape"/>
</filter>
</defs>
</svg>
