<svg width="354" height="354" viewBox="0 0 354 354" fill="none" xmlns="http://www.w3.org/2000/svg">
<g filter="url(#filter0_d)">
<path d="M350 173C350 268.545 272.545 346 177 346C81.4547 346 4 268.545 4 173C4 77.4547 81.4547 0 177 0C272.545 0 350 77.4547 350 173Z" fill="#2560A6"/>
</g>
<path d="M167.291 154.226C167.291 159.749 162.72 164.291 157.197 164.291C99.8932 164.291 163.566 164.291 92.8157 164.291C20.4181 164.291 84.2875 164.291 38.0379 164.291C32.515 164.291 27.9627 159.799 28.3535 154.29C33.2459 85.333 88.333 30.2459 157.29 25.3535C162.799 24.9627 167.291 29.5412 167.291 35.064C167.291 103.982 167.291 92.0193 167.291 154.226Z" fill="#27AE60"/>
<path d="M186.751 192.816C186.751 187.293 191.322 182.75 196.845 182.75C254.149 182.75 190.476 182.75 261.226 182.75C333.624 182.75 269.754 182.75 316.004 182.75C321.527 182.75 326.079 187.243 325.688 192.752C320.796 261.709 265.709 316.796 196.752 321.688C191.243 322.079 186.751 317.501 186.751 311.978C186.751 243.06 186.751 255.023 186.751 192.816Z" fill="#56CCF2"/>
<path d="M196.816 163.807C191.293 163.807 186.751 159.235 186.751 153.712C186.751 96.4085 186.751 160.082 186.751 89.3309C186.751 16.9334 186.751 80.8028 186.751 34.5531C186.751 29.0303 191.243 24.4779 196.752 24.8688C265.709 29.7611 320.796 84.8482 325.688 153.805C326.079 159.314 321.501 163.807 315.978 163.807C247.06 163.807 259.023 163.807 196.816 163.807Z" fill="#EB5757"/>
<path d="M157.185 182.75C162.707 182.75 167.25 187.322 167.25 192.845C167.25 250.149 167.25 186.476 167.25 257.226C167.25 329.624 167.25 265.754 167.25 312.004C167.25 317.527 162.757 322.079 157.248 321.688C88.2912 316.796 33.2041 261.709 28.3118 192.752C27.9209 187.243 32.4994 182.75 38.0223 182.75C106.94 182.75 94.9776 182.75 157.185 182.75Z" fill="#F2C94C"/>
<defs>
<filter id="filter0_d" x="0" y="0" width="354" height="354" filterUnits="userSpaceOnUse" color-interpolation-filters="sRGB">
<feFlood flood-opacity="0" result="BackgroundImageFix"/>
<feColorMatrix in="SourceAlpha" type="matrix" values="0 0 0 0 0 0 0 0 0 0 0 0 0 0 0 0 0 0 127 0"/>
<feOffset dy="4"/>
<feGaussianBlur stdDeviation="2"/>
<feColorMatrix type="matrix" values="0 0 0 0 0 0 0 0 0 0 0 0 0 0 0 0 0 0 0.25 0"/>
<feBlend mode="normal" in2="BackgroundImageFix" result="effect1_dropShadow"/>
<feBlend mode="normal" in="SourceGraphic" in2="effect1_dropShadow" result="shape"/>
</filter>
</defs>
</svg>
